<svg xmlns="http://www.w3.org/2000/svg">
  <symbol id="search-icon" viewBox="0 -960 960 960">
    <path fill="currentColor" d="M784-120 532-372q-30 24-69 38t-83 14q-109 0-184.5-75.5T120-580q0-109 75.5-184.5T380-840q109 0 184.5 75.5T640-580q0 44-14 83t-38 69l252 252-56 56ZM380-400q75 0 127.5-52.5T560-580q0-75-52.5-127.5T380-760q-75 0-127.5 52.5T200-580q0 75 52.5 127.5T380-400Z"/>
  </symbol>

  <symbol id="broken-image" viewBox="0 -960 960 960">
    <path fill="currentColor" d="M200-120q-33 0-56.5-23.5T120-200v-560q0-33 23.5-56.5T200-840h560q33 0 56.5 23.5T840-760v560q0 33-23.5 56.5T760-120H200Zm40-337 160-160 160 160 160-160 40 40v-183H200v263l40 40Zm-40 257h560v-264l-40-40-160 160-160-160-160 160-40-40v184Zm0 0v-264 80-376 560Z"/>
  </symbol>

  <symbol id="bomb" viewBox="0 -960 960 960">
    <path fill="currentColor" d="M346-48q-125 0-212.5-88.5T46-350q0-125 86.5-211.5T344-648h13l27-47q12-22 36-28.5t46 6.5l30 17 5-8q23-43 72-56t92 12l35 20-40 69-35-20q-14-8-30.5-3.5T570-668l-5 8 40 23q21 12 27.5 36t-5.5 45l-27 48q23 36 34.5 76.5T646-348q0 125-87.5 212.5T346-48Zm0-80q91 0 155.5-64.5T566-348q0-31-8.5-61T532-466l-26-41 42-72-104-60-42 72h-44q-94 0-163.5 60T125-350q0 92 64.5 157T346-128Zm454-480v-80h120v80H800ZM580-828v-120h80v120h-80Zm195 81-56-56 85-85 56 56-85 85ZM346-348Z"/>
  </symbol>

  <symbol id="refresh" viewBox="0 -960 960 960">
    <path fill="currentColor" d="M480-160q-134 0-227-93t-93-227q0-134 93-227t227-93q69 0 132 28.5T720-690v-110h80v280H520v-80h168q-32-56-87.5-88T480-720q-100 0-170 70t-70 170q0 100 70 170t170 70q77 0 139-44t87-116h84q-28 106-114 173t-196 67Z"/>
  </symbol>

  <symbol id="search-off" viewBox="0 -960 960 960">
    <path fill="currentColor" d="M138.5-138.5Q80-197 80-280t58.5-141.5Q197-480 280-480t141.5 58.5Q480-363 480-280t-58.5 141.5Q363-80 280-80t-141.5-58.5ZM824-120 568-376q-12-13-25.5-26.5T516-428q38-24 61-64t23-88q0-75-52.5-127.5T420-760q-75 0-127.5 52.5T240-580q0 6 .5 11.5T242-557q-18 2-39.5 8T164-535q-2-11-3-22t-1-23q0-109 75.5-184.5T420-840q109 0 184.5 75.5T680-580q0 43-13.5 81.5T629-428l251 252-56 56Zm-615-61 71-71 70 71 29-28-71-71 71-71-28-28-71 71-71-71-28 28 71 71-71 71 28 28Z"/>
  </symbol>
</svg>
